<svg width="25" height="24" viewBox="0 0 25 24" fill="none" xmlns="http://www.w3.org/2000/svg">
<path d="M4 3C3.40326 3 2.83097 3.23705 2.40901 3.65901C1.98705 4.08097 1.75 4.65326 1.75 5.25V9.75C1.75 10.3467 1.98705 10.919 2.40901 11.341C2.83097 11.7629 3.40326 12 4 12H20.5C21.0967 12 21.669 11.7629 22.091 11.341C22.5129 10.919 22.75 10.3467 22.75 9.75V5.25C22.75 4.65326 22.5129 4.08097 22.091 3.65901C21.669 3.23705 21.0967 3 20.5 3H4ZM4 15C3.40326 15 2.83097 15.2371 2.40901 15.659C1.98705 16.081 1.75 16.6533 1.75 17.25V18.75C1.75 19.3467 1.98705 19.919 2.40901 20.341C2.83097 20.7629 3.40326 21 4 21H8.5C9.09674 21 9.66903 20.7629 10.091 20.341C10.5129 19.919 10.75 19.3467 10.75 18.75V17.25C10.75 16.6533 10.5129 16.081 10.091 15.659C9.66903 15.2371 9.09674 15 8.5 15H4ZM16 15C15.4033 15 14.831 15.2371 14.409 15.659C13.9871 16.081 13.75 16.6533 13.75 17.25V18.75C13.75 19.3467 13.9871 19.919 14.409 20.341C14.831 20.7629 15.4033 21 16 21H20.5C21.0967 21 21.669 20.7629 22.091 20.341C22.5129 19.919 22.75 19.3467 22.75 18.75V17.25C22.75 16.6533 22.5129 16.081 22.091 15.659C21.669 15.2371 21.0967 15 20.5 15H16Z" fill="#0E207F"/>
</svg>
