<svg width="22" height="18" viewBox="0 0 22 18" fill="none" xmlns="http://www.w3.org/2000/svg">
<path d="M3 0C2.40326 0 1.83097 0.237053 1.40901 0.65901C0.987053 1.08097 0.75 1.65326 0.75 2.25V6.75C0.75 7.34674 0.987053 7.91903 1.40901 8.34099C1.83097 8.76295 2.40326 9 3 9H19.5C20.0967 9 20.669 8.76295 21.091 8.34099C21.5129 7.91903 21.75 7.34674 21.75 6.75V2.25C21.75 1.65326 21.5129 1.08097 21.091 0.65901C20.669 0.237053 20.0967 0 19.5 0H3ZM3 12C2.40326 12 1.83097 12.2371 1.40901 12.659C0.987053 13.081 0.75 13.6533 0.75 14.25V15.75C0.75 16.3467 0.987053 16.919 1.40901 17.341C1.83097 17.7629 2.40326 18 3 18H7.5C8.09674 18 8.66903 17.7629 9.09099 17.341C9.51295 16.919 9.75 16.3467 9.75 15.75V14.25C9.75 13.6533 9.51295 13.081 9.09099 12.659C8.66903 12.2371 8.09674 12 7.5 12H3ZM15 12C14.4033 12 13.831 12.2371 13.409 12.659C12.9871 13.081 12.75 13.6533 12.75 14.25V15.75C12.75 16.3467 12.9871 16.919 13.409 17.341C13.831 17.7629 14.4033 18 15 18H19.5C20.0967 18 20.669 17.7629 21.091 17.341C21.5129 16.919 21.75 16.3467 21.75 15.75V14.25C21.75 13.6533 21.5129 13.081 21.091 12.659C20.669 12.2371 20.0967 12 19.5 12H15Z" fill="#D9D9D9"/>
</svg>
