<svg width="15" height="14" viewBox="0 0 15 14" fill="none" xmlns="http://www.w3.org/2000/svg">
<path d="M14.5 7C14.5 10.866 11.366 14 7.5 14C3.63401 14 0.5 10.866 0.5 7C0.5 3.13401 3.63401 0 7.5 0C11.366 0 14.5 3.13401 14.5 7Z" fill="white"/>
<path fill-rule="evenodd" clip-rule="evenodd" d="M7.5 13.3C10.9794 13.3 13.8 10.4794 13.8 7C13.8 3.52061 10.9794 0.7 7.5 0.7C4.02061 0.7 1.2 3.52061 1.2 7C1.2 10.4794 4.02061 13.3 7.5 13.3ZM7.5 14C11.366 14 14.5 10.866 14.5 7C14.5 3.13401 11.366 0 7.5 0C3.63401 0 0.5 3.13401 0.5 7C0.5 10.866 3.63401 14 7.5 14Z" fill="#D9D9D9"/>
</svg>
