<svg width="13" height="12" viewBox="0 0 13 12" fill="none" xmlns="http://www.w3.org/2000/svg">
<circle cx="6.5" cy="6" r="6" fill="#0E207F"/>
<path fill-rule="evenodd" clip-rule="evenodd" d="M8.89015 3.65403C8.96049 3.75257 9 3.88621 9 4.02555C9 4.16489 8.96049 4.29853 8.89015 4.39707L6.07786 8.33578C6.0407 8.38785 5.99658 8.42914 5.94801 8.45732C5.89945 8.4855 5.8474 8.5 5.79484 8.5C5.74227 8.5 5.69022 8.4855 5.64166 8.45732C5.59309 8.42914 5.54897 8.38785 5.51181 8.33578L4.11455 6.37921C4.07871 6.33074 4.05013 6.27275 4.03046 6.20864C4.0108 6.14453 4.00045 6.07558 4.00001 6.0058C3.99958 5.93603 4.00907 5.86683 4.02794 5.80225C4.04681 5.73767 4.07467 5.679 4.10989 5.62966C4.14512 5.58032 4.18702 5.5413 4.23313 5.51488C4.27924 5.48846 4.32865 5.47516 4.37846 5.47577C4.42828 5.47637 4.47752 5.49087 4.52329 5.51841C4.56907 5.54595 4.61047 5.58598 4.64508 5.63617L5.79471 7.24627L8.35936 3.65403C8.3942 3.6052 8.43557 3.56646 8.48111 3.54003C8.52665 3.5136 8.57546 3.5 8.62475 3.5C8.67404 3.5 8.72285 3.5136 8.76839 3.54003C8.81393 3.56646 8.8553 3.6052 8.89015 3.65403Z" fill="white"/>
</svg>
