<svg width="19" height="18" viewBox="0 0 19 18" fill="none" xmlns="http://www.w3.org/2000/svg">
<path d="M9.75 9C8.5125 9 7.45312 8.55937 6.57187 7.67812C5.69062 6.79687 5.25 5.7375 5.25 4.5C5.25 3.2625 5.69062 2.20313 6.57187 1.32188C7.45312 0.440625 8.5125 0 9.75 0C10.9875 0 12.0469 0.440625 12.9281 1.32188C13.8094 2.20313 14.25 3.2625 14.25 4.5C14.25 5.7375 13.8094 6.79687 12.9281 7.67812C12.0469 8.55937 10.9875 9 9.75 9ZM0.75 18V14.85C0.75 14.2125 0.91425 13.6267 1.24275 13.0927C1.57125 12.5587 2.007 12.1508 2.55 11.8688C3.7125 11.2875 4.89375 10.8517 6.09375 10.5615C7.29375 10.2712 8.5125 10.1257 9.75 10.125C10.9875 10.1243 12.2062 10.2697 13.4062 10.5615C14.6062 10.8532 15.7875 11.289 16.95 11.8688C17.4937 12.15 17.9299 12.558 18.2584 13.0927C18.5869 13.6275 18.7507 14.2133 18.75 14.85V18H0.75Z" fill="#0E207F"/>
</svg>
