<svg width="24" height="24" viewBox="0 0 24 24" fill="none" xmlns="http://www.w3.org/2000/svg">
<path fill-rule="evenodd" clip-rule="evenodd" d="M12.5939 23.2584L12.5819 23.2604L12.5109 23.2954L12.4909 23.2994L12.4769 23.2954L12.4059 23.2594C12.3953 23.2568 12.3873 23.2588 12.3819 23.2654L12.3779 23.2754L12.3609 23.7034L12.3659 23.7234L12.3759 23.7364L12.4799 23.8104L12.4949 23.8144L12.5069 23.8104L12.6109 23.7364L12.6229 23.7204L12.6269 23.7034L12.6099 23.2764C12.6073 23.2658 12.6019 23.2598 12.5939 23.2584ZM12.8579 23.1454L12.8439 23.1474L12.6599 23.2404L12.6499 23.2504L12.6469 23.2614L12.6649 23.6914L12.6699 23.7034L12.6779 23.7114L12.8789 23.8034C12.8916 23.8068 12.9013 23.8041 12.9079 23.7954L12.9119 23.7814L12.8779 23.1674C12.8746 23.1548 12.8679 23.1474 12.8579 23.1454ZM12.1429 23.1474C12.1385 23.1448 12.1333 23.1439 12.1282 23.145C12.1232 23.1461 12.1188 23.1491 12.1159 23.1534L12.1099 23.1674L12.0759 23.7814C12.0766 23.7934 12.0823 23.8014 12.0929 23.8054L12.1079 23.8034L12.3089 23.7104L12.3189 23.7024L12.3219 23.6914L12.3399 23.2614L12.3369 23.2494L12.3269 23.2394L12.1429 23.1474Z" fill="#0E207F"/>
<path fill-rule="evenodd" clip-rule="evenodd" d="M4.99993 9.00024C4.9999 8.03191 5.20077 7.07411 5.58984 6.18739C5.97892 5.30067 6.54773 4.50431 7.26033 3.84867C7.97292 3.19303 8.8138 2.69237 9.72979 2.37834C10.6458 2.0643 11.617 1.94373 12.5819 2.02424C12.7143 2.03297 12.8437 2.06797 12.9624 2.12718C13.0812 2.1864 13.1869 2.26866 13.2736 2.36916C13.3602 2.46967 13.426 2.58641 13.467 2.71258C13.5081 2.83875 13.5236 2.97184 13.5127 3.10408C13.5019 3.23632 13.4648 3.36508 13.4036 3.48284C13.3425 3.6006 13.2585 3.70502 13.1566 3.79001C13.0547 3.875 12.9369 3.93886 12.8101 3.97787C12.6833 4.01688 12.55 4.03027 12.4179 4.01724C11.7285 3.9594 11.0345 4.04528 10.3799 4.26944C9.72539 4.49361 9.12447 4.85119 8.61522 5.31955C8.10597 5.78792 7.69947 6.35687 7.42143 6.99043C7.14339 7.62399 6.99986 8.30835 6.99993 9.00024V12.5282C6.9999 12.9941 6.89137 13.4536 6.68293 13.8702L5.61793 16.0002H18.3819L17.3169 13.8702C17.1085 13.4536 17 12.9941 16.9999 12.5282V11.0002C16.9999 10.735 17.1053 10.4807 17.2928 10.2931C17.4804 10.1056 17.7347 10.0002 17.9999 10.0002C18.2651 10.0002 18.5195 10.1056 18.707 10.2931C18.8946 10.4807 18.9999 10.735 18.9999 11.0002V12.5282C18.9998 12.6834 19.0357 12.8364 19.1049 12.9752L20.8219 16.4082C20.9058 16.576 20.9454 16.7623 20.937 16.9497C20.9286 17.137 20.8724 17.3191 20.7738 17.4786C20.6752 17.6381 20.5375 17.7698 20.3737 17.8611C20.2099 17.9524 20.0255 18.0003 19.8379 18.0002H15.8739C15.6515 18.8585 15.1504 19.6186 14.4492 20.1612C13.748 20.7038 12.8865 20.9982 11.9999 20.9982C11.1133 20.9982 10.2518 20.7038 9.55067 20.1612C8.8495 19.6186 8.34837 18.8585 8.12593 18.0002H4.16193C3.97441 18.0003 3.78999 17.9524 3.6262 17.8611C3.4624 17.7698 3.32467 17.6381 3.22608 17.4786C3.12748 17.3191 3.07131 17.137 3.06288 16.9497C3.05445 16.7623 3.09406 16.576 3.17793 16.4082L4.89393 12.9752C4.96347 12.8365 4.99976 12.6834 4.99993 12.5282V9.00024ZM10.2679 18.0002C10.4435 18.3043 10.6959 18.5567 11 18.7322C11.304 18.9077 11.6489 19.0001 11.9999 19.0001C12.351 19.0001 12.6959 18.9077 12.9999 18.7322C13.3039 18.5567 13.5564 18.3043 13.7319 18.0002H10.2679ZM17.4999 4.00024C17.3029 4.00024 17.1079 4.03904 16.9259 4.11442C16.7439 4.1898 16.5786 4.30029 16.4393 4.43958C16.3 4.57886 16.1895 4.74422 16.1141 4.92621C16.0387 5.1082 15.9999 5.30325 15.9999 5.50024C15.9999 5.69722 16.0387 5.89227 16.1141 6.07426C16.1895 6.25625 16.3 6.42161 16.4393 6.5609C16.5786 6.70019 16.7439 6.81067 16.9259 6.88606C17.1079 6.96144 17.3029 7.00024 17.4999 7.00024C17.8978 7.00024 18.2793 6.8422 18.5606 6.5609C18.8419 6.27959 18.9999 5.89806 18.9999 5.50024C18.9999 5.10241 18.8419 4.72088 18.5606 4.43958C18.2793 4.15827 17.8978 4.00024 17.4999 4.00024ZM13.9999 5.50024C13.9999 4.57198 14.3687 3.68174 15.0251 3.02536C15.6814 2.36899 16.5717 2.00024 17.4999 2.00024C18.4282 2.00024 19.3184 2.36899 19.9748 3.02536C20.6312 3.68174 20.9999 4.57198 20.9999 5.50024C20.9999 6.42849 20.6312 7.31873 19.9748 7.97511C19.3184 8.63149 18.4282 9.00024 17.4999 9.00024C16.5717 9.00024 15.6814 8.63149 15.0251 7.97511C14.3687 7.31873 13.9999 6.42849 13.9999 5.50024Z" fill="#0E207F"/>
</svg>
