<svg width="24" height="24" viewBox="0 0 24 24" fill="none" xmlns="http://www.w3.org/2000/svg">
<path d="M9.07684 6.02342C9.02731 5.39031 8.63107 5.02853 7.8262 5.02853C7.0461 5.02853 6.69939 5.33863 6.68701 5.77793C6.67463 6.25599 7.09563 6.52732 7.92526 6.70821L8.66821 6.8891C10.5999 7.31548 11.4543 8.29744 11.4667 9.73163C11.4543 11.5664 10.1046 12.6 7.83859 12.6C5.52305 12.6 4.02477 11.5405 4 9.24065H6.25362C6.29077 10.1063 6.87275 10.5715 7.80144 10.5715C8.6063 10.5715 9.03969 10.2226 9.05207 9.73163C9.03969 9.27941 8.6806 9.021 7.67761 8.78843L6.77369 8.5817C5.20111 8.21992 4.23527 7.40592 4.23527 5.95882C4.22289 4.18869 5.72117 3 7.8262 3C9.98076 3 11.3305 4.20162 11.3428 6.02342H9.07684Z" fill="#0E207F"/>
<path d="M8.2666 13.667H10.4064L11.9593 17.3885H12.0406L13.5935 13.667H15.7333V20.067H14.0539V16.3012H13.9998L12.5101 20.0228H11.4808L10.0001 16.2747H9.94592V20.067H8.2666V13.667Z" fill="#0E207F"/>
<path d="M17.7154 5.13379H19.9999V10.5472C19.9999 12.4564 18.4969 13.6671 16.2605 13.6671C14.0241 13.6671 12.5332 12.4564 12.5332 10.5472V5.13379H14.8177V10.3493C14.8177 11.1642 15.4189 11.7462 16.2605 11.7462C17.1142 11.7462 17.7154 11.1642 17.7154 10.3493V5.13379Z" fill="#0E207F"/>
</svg>
