<svg width="240" height="59" viewBox="0 0 240 59" fill="none" xmlns="http://www.w3.org/2000/svg">
<g clip-path="url(#clip0_331_4703)">
<path d="M239.916 0H0V58.8204H239.916V0Z" fill="white"/>
<g filter="url(#filter0_d_331_4703)">
<path d="M234.687 10.5361V47.452H226.568L212.833 27.5152H212.577V47.452H202.875V10.5361H211.148L224.679 30.3707H224.985V10.5361H234.687Z" fill="#0E207F"/>
<path d="M198.67 29.4101C198.67 41.6985 190.806 48.3778 180.798 48.3778C170.688 48.3778 162.875 41.6474 162.875 29.4101C162.875 17.1219 170.688 10.4424 180.798 10.4424C190.806 10.4424 198.67 17.1219 198.67 29.4101ZM188.662 29.4101C188.662 22.6287 185.854 18.9065 180.798 18.9065C175.692 18.9065 172.884 22.6287 172.884 29.4101C172.884 36.1917 175.692 39.9139 180.798 39.9139C185.854 39.9139 188.662 36.1917 188.662 29.4101Z" fill="#0E207F"/>
<path d="M158.764 10.9521V47.8678H149.062V10.9521H158.764Z" fill="#0E207F"/>
<path d="M148.016 10.9521V47.8678H139.897L126.162 27.9313H125.907V47.8678H116.205V10.9521H124.477L138.008 30.7868H138.315V10.9521H148.016Z" fill="#0E207F"/>
<path d="M105.457 10.9521H115.159V34.6618C115.159 43.0241 108.776 48.3268 99.2785 48.3268C89.781 48.3268 83.4492 43.0241 83.4492 34.6618V10.9521H93.1512V33.795C93.1512 37.3643 95.7041 39.9138 99.2785 39.9138C102.904 39.9138 105.457 37.3643 105.457 33.795V10.9521Z" fill="#0E207F"/>
<path d="M40.1753 10.9521H52.277L61.0597 32.4185H61.5191L70.3018 10.9521H82.4035V47.8678H72.906V26.1467H72.5996L64.1745 47.613H58.3533L49.9792 25.9938H49.6728V47.8678H40.1753V10.9521Z" fill="#0E207F"/>
<path d="M26.1639 22.3737C25.9597 19.8753 24.3257 18.4476 21.0067 18.4476C17.7898 18.4476 16.36 19.6713 16.309 21.405C16.2579 23.2915 17.994 24.3623 21.4152 25.0761L24.4789 25.79C32.4447 27.4725 35.9679 31.3477 36.0188 37.0075C35.9679 44.2478 30.4021 48.3269 21.0578 48.3269C11.5091 48.3269 5.33063 44.146 5.22852 35.0699H14.5218C14.675 38.4862 17.0749 40.3217 20.9046 40.3217C24.2236 40.3217 26.0108 38.9451 26.0618 37.0075C26.0108 35.2229 24.53 34.2032 20.394 33.2853L16.6664 32.4695C10.1815 31.0417 6.19869 27.8296 6.19869 22.1188C6.14763 15.1334 12.3261 10.4424 21.0067 10.4424C29.8915 10.4424 35.4573 15.1843 35.5083 22.3737H26.1639Z" fill="#0E207F"/>
</g>
</g>
<defs>
<filter id="filter0_d_331_4703" x="-6.77148" y="0.442383" width="253.458" height="61.9355" filterUnits="userSpaceOnUse" color-interpolation-filters="sRGB">
<feFlood flood-opacity="0" result="BackgroundImageFix"/>
<feColorMatrix in="SourceAlpha" type="matrix" values="0 0 0 0 0 0 0 0 0 0 0 0 0 0 0 0 0 0 127 0" result="hardAlpha"/>
<feOffset dy="2"/>
<feGaussianBlur stdDeviation="6"/>
<feComposite in2="hardAlpha" operator="out"/>
<feColorMatrix type="matrix" values="0 0 0 0 0 0 0 0 0 0 0 0 0 0 0 0 0 0 0.08 0"/>
<feBlend mode="normal" in2="BackgroundImageFix" result="effect1_dropShadow_331_4703"/>
<feBlend mode="normal" in="SourceGraphic" in2="effect1_dropShadow_331_4703" result="shape"/>
</filter>
<clipPath id="clip0_331_4703">
<rect width="240" height="59" fill="white"/>
</clipPath>
</defs>
</svg>
