<svg width="16" height="18" viewBox="0 0 16 18" fill="none" xmlns="http://www.w3.org/2000/svg">
<path d="M5.07684 3.02342C5.02731 2.39031 4.63107 2.02853 3.8262 2.02853C3.0461 2.02853 2.69939 2.33863 2.68701 2.77793C2.67463 3.25599 3.09563 3.52732 3.92526 3.70821L4.66821 3.8891C6.59989 4.31548 7.45428 5.29744 7.46667 6.73163C7.45428 8.56635 6.10459 9.6 3.83859 9.6C1.52305 9.6 0.0247651 8.54051 0 6.24065H2.25362C2.29077 7.10633 2.87275 7.57147 3.80144 7.57147C4.6063 7.57147 5.03969 7.22261 5.05207 6.73163C5.03969 6.27941 4.6806 6.021 3.67761 5.78843L2.77369 5.5817C1.20111 5.21992 0.235268 4.40592 0.235268 2.95882C0.222886 1.18869 1.72117 0 3.8262 0C5.98076 0 7.33046 1.20162 7.34284 3.02342H5.07684Z" fill="#D9D9D9"/>
<path d="M4.2666 10.6667H6.40638L7.95931 14.3882H8.04056L9.59349 10.6667H11.7333V17.0667H10.0539V13.3009H9.99977L8.51005 17.0225H7.48079L6.0001 13.2744H5.94592V17.0667H4.2666V10.6667Z" fill="#D9D9D9"/>
<path d="M13.7156 2.13333H16.0001V7.5467C16.0001 9.45593 14.4972 10.6667 12.2608 10.6667C10.0244 10.6667 8.53345 9.45593 8.53345 7.5467V2.13333H10.8179V7.34879C10.8179 8.16371 11.4191 8.74579 12.2608 8.74579C13.1144 8.74579 13.7156 8.16371 13.7156 7.34879V2.13333Z" fill="#D9D9D9"/>
</svg>
